# xmcd CD database file
#
# Track frame offsets:
#	150
#	18657
#	39521
#	57087
#	78435
#	97911
#	119364
#	138864
#	158168
#	178738
#
# Disc length: 2658 seconds
#
# Revision: 0
# Processed by: cddbd v1.5.2PL0 Copyright (c) Steve Scherf et al.
# Submitted via: CDex 1.70beta2
#
DISCID=780a600a
DTITLE=堤智恵子 - Anime Jazz
DYEAR=2016
DGENRE=Jazz
TTITLE0=01 魔法使いサリー
TTITLE1=02 いつも何度でも
TTITLE2=03 アンパンマンのマーチ
TTITLE3=04 君をのせて
TTITLE4=05 太陽にほえるコナン
TTITLE5=06 崖の上のポニョ
TTITLE6=07 想い出がいっぱい
TTITLE7=08 宇宙戦艦ヤマト
TTITLE8=09 ひこうき雲
TTITLE9=10 さんぽ
EXTD=YEAR: 2016
EXTT0=
EXTT1=
EXTT2=
EXTT3=
EXTT4=
EXTT5=
EXTT6=
EXTT7=
EXTT8=
EXTT9=
PLAYORDER=
